<?xml version="1.0" standalone="no"?><!DOCTYPE svg PUBLIC "-//W3C//DTD SVG 1.1//EN" "http://www.w3.org/Graphics/SVG/1.1/DTD/svg11.dtd"><svg t="1487742362528" class="icon" style="" viewBox="0 0 1024 1024" version="1.1" xmlns="http://www.w3.org/2000/svg" p-id="4628" xmlns:xlink="http://www.w3.org/1999/xlink" width="200" height="200"><defs><style type="text/css"></style></defs><path d="M896 448l0 362.688C896 857.6 857.632 896 810.688 896L213.376 896C166.432 896 128 857.6 128 810.688L128 213.312C128 166.4 166.432 128 213.376 128L576 128l0 32L222.256 160C179.232 160 160 179.2 160 222.208l0 579.6C160 844.8 179.232 864 222.256 864l579.552 0C844.816 864 864 844.8 864 801.792L864 448 896 448zM811.936 166.816l45.248 45.248c12.496 12.496 12.496 32.768 0 45.248l-22.624 22.624L407.952 706.544l0 0.016L317.44 706.56l0-90.512 426.608-426.624 0.016 0.016 22.624-22.624C779.168 154.32 799.44 154.32 811.936 166.816zM744.032 234.672 351.376 627.36l-1.568 46.816 46.816-1.552 0-0.032 392.672-392.656L744.032 234.672zM789.296 189.424l-22.624 22.624 45.264 45.264 22.624-22.624L789.296 189.424z" p-id="4629"></path></svg>